%TF.GenerationSoftware,KiCad,Pcbnew,8.0.1*%
%TF.CreationDate,2024-04-14T04:03:23+09:00*%
%TF.ProjectId,BM83_Breakout,424d3833-5f42-4726-9561-6b6f75742e6b,rev?*%
%TF.SameCoordinates,Original*%
%TF.FileFunction,Copper,L1,Top*%
%TF.FilePolarity,Positive*%
%FSLAX46Y46*%
G04 Gerber Fmt 4.6, Leading zero omitted, Abs format (unit mm)*
G04 Created by KiCad (PCBNEW 8.0.1) date 2024-04-14 04:03:23*
%MOMM*%
%LPD*%
G01*
G04 APERTURE LIST*
G04 Aperture macros list*
%AMRoundRect*
0 Rectangle with rounded corners*
0 $1 Rounding radius*
0 $2 $3 $4 $5 $6 $7 $8 $9 X,Y pos of 4 corners*
0 Add a 4 corners polygon primitive as box body*
4,1,4,$2,$3,$4,$5,$6,$7,$8,$9,$2,$3,0*
0 Add four circle primitives for the rounded corners*
1,1,$1+$1,$2,$3*
1,1,$1+$1,$4,$5*
1,1,$1+$1,$6,$7*
1,1,$1+$1,$8,$9*
0 Add four rect primitives between the rounded corners*
20,1,$1+$1,$2,$3,$4,$5,0*
20,1,$1+$1,$4,$5,$6,$7,0*
20,1,$1+$1,$6,$7,$8,$9,0*
20,1,$1+$1,$8,$9,$2,$3,0*%
G04 Aperture macros list end*
%TA.AperFunction,ComponentPad*%
%ADD10R,1.700000X1.700000*%
%TD*%
%TA.AperFunction,ComponentPad*%
%ADD11O,1.700000X1.700000*%
%TD*%
%TA.AperFunction,SMDPad,CuDef*%
%ADD12RoundRect,0.150000X-0.600000X-0.150000X0.600000X-0.150000X0.600000X0.150000X-0.600000X0.150000X0*%
%TD*%
%TA.AperFunction,SMDPad,CuDef*%
%ADD13RoundRect,0.150000X-0.150000X-0.600000X0.150000X-0.600000X0.150000X0.600000X-0.150000X0.600000X0*%
%TD*%
%TA.AperFunction,SMDPad,CuDef*%
%ADD14RoundRect,0.250000X-0.640000X-0.640000X0.640000X-0.640000X0.640000X0.640000X-0.640000X0.640000X0*%
%TD*%
%TA.AperFunction,SMDPad,CuDef*%
%ADD15RoundRect,0.190000X-1.205000X-0.190000X1.205000X-0.190000X1.205000X0.190000X-1.205000X0.190000X0*%
%TD*%
%TA.AperFunction,Conductor*%
%ADD16C,0.300000*%
%TD*%
G04 APERTURE END LIST*
D10*
%TO.P,REF\u002A\u002A,1*%
%TO.N,N/C*%
X71120000Y-63500000D03*
D11*
%TO.P,REF\u002A\u002A,2*%
X71120000Y-66040000D03*
%TO.P,REF\u002A\u002A,3*%
X71120000Y-68580000D03*
%TO.P,REF\u002A\u002A,4*%
X71120000Y-71120000D03*
%TO.P,REF\u002A\u002A,5*%
X71120000Y-73660000D03*
%TO.P,REF\u002A\u002A,6*%
X71120000Y-76200000D03*
%TO.P,REF\u002A\u002A,7*%
X71120000Y-78740000D03*
%TO.P,REF\u002A\u002A,8*%
X71120000Y-81280000D03*
%TO.P,REF\u002A\u002A,9*%
X71120000Y-83820000D03*
%TO.P,REF\u002A\u002A,10*%
X71120000Y-86360000D03*
%TO.P,REF\u002A\u002A,11*%
X71120000Y-88900000D03*
%TO.P,REF\u002A\u002A,12*%
X71120000Y-91440000D03*
%TO.P,REF\u002A\u002A,13*%
X71120000Y-93980000D03*
%TO.P,REF\u002A\u002A,14*%
X71120000Y-96520000D03*
%TO.P,REF\u002A\u002A,15*%
X71120000Y-99060000D03*
%TO.P,REF\u002A\u002A,16*%
X71120000Y-101600000D03*
%TO.P,REF\u002A\u002A,17*%
X71120000Y-104140000D03*
%TO.P,REF\u002A\u002A,18*%
X71120000Y-106680000D03*
%TO.P,REF\u002A\u002A,19*%
X71120000Y-109220000D03*
%TO.P,REF\u002A\u002A,20*%
X71120000Y-111760000D03*
%TO.P,REF\u002A\u002A,21*%
X71120000Y-114300000D03*
%TO.P,REF\u002A\u002A,22*%
X71120000Y-116840000D03*
%TO.P,REF\u002A\u002A,23*%
X71120000Y-119380000D03*
%TO.P,REF\u002A\u002A,24*%
X71120000Y-121920000D03*
%TO.P,REF\u002A\u002A,25*%
X71120000Y-124460000D03*
%TD*%
D12*
%TO.P,U1,1,DR1*%
%TO.N,unconnected-(U1-DR1-Pad1)*%
X84190000Y-63500000D03*
%TO.P,U1,2,RFS1*%
%TO.N,unconnected-(U1-RFS1-Pad2)*%
X84190000Y-64500000D03*
%TO.P,U1,3,SCLK1*%
%TO.N,unconnected-(U1-SCLK1-Pad3)*%
X84190000Y-65500000D03*
%TO.P,U1,4,DT1*%
%TO.N,unconnected-(U1-DT1-Pad4)*%
X84190000Y-66500000D03*
%TO.P,U1,5,MCLK1*%
%TO.N,unconnected-(U1-MCLK1-Pad5)*%
X84190000Y-67500000D03*
%TO.P,U1,6,AOHPR*%
%TO.N,unconnected-(U1-AOHPR-Pad6)*%
X84190000Y-68500000D03*
%TO.P,U1,7,AOHPM*%
%TO.N,unconnected-(U1-AOHPM-Pad7)*%
X84190000Y-69500000D03*
%TO.P,U1,8,AOHPL*%
%TO.N,unconnected-(U1-AOHPL-Pad8)*%
X84190000Y-70500000D03*
%TO.P,U1,9,MICN2*%
%TO.N,unconnected-(U1-MICN2-Pad9)*%
X84190000Y-71500000D03*
%TO.P,U1,10,MICP2*%
%TO.N,unconnected-(U1-MICP2-Pad10)*%
X84190000Y-72500000D03*
%TO.P,U1,11,AIR*%
%TO.N,unconnected-(U1-AIR-Pad11)*%
X84190000Y-73500000D03*
%TO.P,U1,12,AIL*%
%TO.N,unconnected-(U1-AIL-Pad12)*%
X84190000Y-74500000D03*
%TO.P,U1,13,MICN1*%
%TO.N,unconnected-(U1-MICN1-Pad13)*%
X84190000Y-75500000D03*
%TO.P,U1,14,MICP1*%
%TO.N,unconnected-(U1-MICP1-Pad14)*%
X84190000Y-76500000D03*
%TO.P,U1,15,MICBIAS*%
%TO.N,unconnected-(U1-MICBIAS-Pad15)*%
X84190000Y-77500000D03*
%TO.P,U1,16,GND*%
%TO.N,Net-(U1-GND-Pad16)*%
X84190000Y-78500000D03*
%TO.P,U1,17,DMIC_CLK*%
%TO.N,unconnected-(U1-DMIC_CLK-Pad17)*%
X84190000Y-79500000D03*
%TO.P,U1,18,DMIC1_R*%
%TO.N,unconnected-(U1-DMIC1_R-Pad18)*%
X84190000Y-80500000D03*
%TO.P,U1,19,DMIC1_L*%
%TO.N,unconnected-(U1-DMIC1_L-Pad19)*%
X84190000Y-81500000D03*
%TO.P,U1,20,P3_2*%
%TO.N,unconnected-(U1-P3_2-Pad20)*%
X84190000Y-82500000D03*
D13*
%TO.P,U1,21,P2_6*%
%TO.N,unconnected-(U1-P2_6-Pad21)*%
X86940000Y-84150000D03*
%TO.P,U1,22,ADAP_IN*%
%TO.N,unconnected-(U1-ADAP_IN-Pad22)*%
X87940000Y-84150000D03*
%TO.P,U1,23,BAT_IN*%
%TO.N,unconnected-(U1-BAT_IN-Pad23)*%
X88940000Y-84150000D03*
%TO.P,U1,24,SYS_PWR*%
%TO.N,unconnected-(U1-SYS_PWR-Pad24)*%
X89940000Y-84150000D03*
%TO.P,U1,25,VDD_IO*%
%TO.N,unconnected-(U1-VDD_IO-Pad25)*%
X90940000Y-84150000D03*
%TO.P,U1,26,PWR(MFB)*%
%TO.N,unconnected-(U1-PWR(MFB)-Pad26)*%
X91940000Y-84150000D03*
%TO.P,U1,27,SK1_AMB_DET*%
%TO.N,unconnected-(U1-SK1_AMB_DET-Pad27)*%
X92940000Y-84150000D03*
%TO.P,U1,28,SK2_KEY_AD*%
%TO.N,unconnected-(U1-SK2_KEY_AD-Pad28)*%
X93940000Y-84150000D03*
%TO.P,U1,29,P8_6/UART_RXD*%
%TO.N,unconnected-(U1-P8_6{slash}UART_RXD-Pad29)*%
X94940000Y-84150000D03*
%TO.P,U1,30,P8_5/UART_TXD*%
%TO.N,unconnected-(U1-P8_5{slash}UART_TXD-Pad30)*%
X95940000Y-84150000D03*
D12*
%TO.P,U1,31,P3_4/UART_RTS*%
%TO.N,unconnected-(U1-P3_4{slash}UART_RTS-Pad31)*%
X98690000Y-82500000D03*
%TO.P,U1,32,LED1*%
%TO.N,unconnected-(U1-LED1-Pad32)*%
X98690000Y-81500000D03*
%TO.P,U1,33,P0_2*%
%TO.N,unconnected-(U1-P0_2-Pad33)*%
X98690000Y-80500000D03*
%TO.P,U1,34,LED2*%
%TO.N,unconnected-(U1-LED2-Pad34)*%
X98690000Y-79500000D03*
%TO.P,U1,35,P0_6*%
%TO.N,unconnected-(U1-P0_6-Pad35)*%
X98690000Y-78500000D03*
%TO.P,U1,36,DM*%
%TO.N,unconnected-(U1-DM-Pad36)*%
X98690000Y-77500000D03*
%TO.P,U1,37,DP*%
%TO.N,unconnected-(U1-DP-Pad37)*%
X98690000Y-76500000D03*
%TO.P,U1,38,P0_3*%
%TO.N,unconnected-(U1-P0_3-Pad38)*%
X98690000Y-75500000D03*
%TO.P,U1,39,P2_7*%
%TO.N,unconnected-(U1-P2_7-Pad39)*%
X98690000Y-74500000D03*
%TO.P,U1,40,P0_5*%
%TO.N,unconnected-(U1-P0_5-Pad40)*%
X98690000Y-73500000D03*
%TO.P,U1,41,P1_6/PWM1*%
%TO.N,unconnected-(U1-P1_6{slash}PWM1-Pad41)*%
X98690000Y-72500000D03*
%TO.P,U1,42,P2_3*%
%TO.N,unconnected-(U1-P2_3-Pad42)*%
X98690000Y-71500000D03*
%TO.P,U1,43,~{RST}*%
%TO.N,unconnected-(U1-~{RST}-Pad43)*%
X98690000Y-70500000D03*
%TO.P,U1,44,P0_1*%
%TO.N,unconnected-(U1-P0_1-Pad44)*%
X98690000Y-69500000D03*
%TO.P,U1,45,P0_7*%
%TO.N,unconnected-(U1-P0_7-Pad45)*%
X98690000Y-68500000D03*
%TO.P,U1,46,P1_2/TDI_CPU/SCL*%
%TO.N,unconnected-(U1-P1_2{slash}TDI_CPU{slash}SCL-Pad46)*%
X98690000Y-67500000D03*
%TO.P,U1,47,P1_3/TCK_CPU/SDA*%
%TO.N,unconnected-(U1-P1_3{slash}TCK_CPU{slash}SDA-Pad47)*%
X98690000Y-66500000D03*
%TO.P,U1,48,P3_7/UART_CTS*%
%TO.N,unconnected-(U1-P3_7{slash}UART_CTS-Pad48)*%
X98690000Y-65500000D03*
%TO.P,U1,49,P0_0/UART_TX_IND*%
%TO.N,unconnected-(U1-P0_0{slash}UART_TX_IND-Pad49)*%
X98690000Y-64500000D03*
%TO.P,U1,50,GND*%
%TO.N,Net-(U1-GND-Pad16)*%
X98690000Y-63500000D03*
D14*
%TO.P,U1,56,GND*%
X96210000Y-73930000D03*
D15*
%TO.P,U1,57,GND*%
X88150000Y-63820000D03*
%TD*%
D10*
%TO.P,REF\u002A\u002A,1*%
%TO.N,N/C*%
X111760000Y-63500000D03*
D11*
%TO.P,REF\u002A\u002A,2*%
X111760000Y-66040000D03*
%TO.P,REF\u002A\u002A,3*%
X111760000Y-68580000D03*
%TO.P,REF\u002A\u002A,4*%
X111760000Y-71120000D03*
%TO.P,REF\u002A\u002A,5*%
X111760000Y-73660000D03*
%TO.P,REF\u002A\u002A,6*%
X111760000Y-76200000D03*
%TO.P,REF\u002A\u002A,7*%
X111760000Y-78740000D03*
%TO.P,REF\u002A\u002A,8*%
X111760000Y-81280000D03*
%TO.P,REF\u002A\u002A,9*%
X111760000Y-83820000D03*
%TO.P,REF\u002A\u002A,10*%
X111760000Y-86360000D03*
%TO.P,REF\u002A\u002A,11*%
X111760000Y-88900000D03*
%TO.P,REF\u002A\u002A,12*%
X111760000Y-91440000D03*
%TO.P,REF\u002A\u002A,13*%
X111760000Y-93980000D03*
%TO.P,REF\u002A\u002A,14*%
X111760000Y-96520000D03*
%TO.P,REF\u002A\u002A,15*%
X111760000Y-99060000D03*
%TO.P,REF\u002A\u002A,16*%
X111760000Y-101600000D03*
%TO.P,REF\u002A\u002A,17*%
X111760000Y-104140000D03*
%TO.P,REF\u002A\u002A,18*%
X111760000Y-106680000D03*
%TO.P,REF\u002A\u002A,19*%
X111760000Y-109220000D03*
%TO.P,REF\u002A\u002A,20*%
X111760000Y-111760000D03*
%TO.P,REF\u002A\u002A,21*%
X111760000Y-114300000D03*
%TO.P,REF\u002A\u002A,22*%
X111760000Y-116840000D03*
%TO.P,REF\u002A\u002A,23*%
X111760000Y-119380000D03*
%TO.P,REF\u002A\u002A,24*%
X111760000Y-121920000D03*
%TO.P,REF\u002A\u002A,25*%
X111760000Y-124460000D03*
%TD*%
D16*
%TO.N,unconnected-(U1-DMIC_CLK-Pad17)*%
X81788000Y-104140000D02*
X71120000Y-104140000D01*
X81788000Y-104140000D02*
X81788000Y-80264000D01*
X82552000Y-79500000D02*
X84190000Y-79500000D01*
X81788000Y-80264000D02*
X82552000Y-79500000D01*
%TO.N,unconnected-(U1-P2_6-Pad21)*%
X71120000Y-114300000D02*
X83820000Y-114300000D01*
X83820000Y-88900000D02*
X86940000Y-85780000D01*
X86940000Y-85780000D02*
X86940000Y-84150000D01*
X83820000Y-114300000D02*
X83820000Y-88900000D01*
%TO.N,unconnected-(U1-DP-Pad37)*%
X101900000Y-76500000D02*
X98690000Y-76500000D01*
X102616000Y-96520000D02*
X102616000Y-77216000D01*
X102616000Y-77216000D02*
X101900000Y-76500000D01*
X111760000Y-96520000D02*
X102616000Y-96520000D01*
%TO.N,unconnected-(U1-P1_6{slash}PWM1-Pad41)*%
X104648000Y-86360000D02*
X104648000Y-73152000D01*
X103996000Y-72500000D02*
X98690000Y-72500000D01*
X111760000Y-86360000D02*
X104648000Y-86360000D01*
X104648000Y-73152000D02*
X103996000Y-72500000D01*
%TO.N,unconnected-(U1-ADAP_IN-Pad22)*%
X84328000Y-89916000D02*
X87940000Y-86304000D01*
X71120000Y-116840000D02*
X84328000Y-116840000D01*
X84328000Y-116840000D02*
X84328000Y-89916000D01*
X87940000Y-86304000D02*
X87940000Y-84150000D01*
%TO.N,unconnected-(U1-DM-Pad36)*%
X102108000Y-78232000D02*
X101376000Y-77500000D01*
X101376000Y-77500000D02*
X98690000Y-77500000D01*
X111760000Y-99060000D02*
X102108000Y-99060000D01*
X102108000Y-99060000D02*
X102108000Y-78232000D01*
%TO.N,unconnected-(U1-DMIC1_R-Pad18)*%
X82296000Y-106680000D02*
X71120000Y-106680000D01*
X82296000Y-81280000D02*
X83076000Y-80500000D01*
X82296000Y-106680000D02*
X82296000Y-81280000D01*
X83076000Y-80500000D02*
X84190000Y-80500000D01*
%TO.N,unconnected-(U1-SCLK1-Pad3)*%
X74676000Y-66040000D02*
X75216000Y-65500000D01*
X74676000Y-68580000D02*
X71120000Y-68580000D01*
X75216000Y-65500000D02*
X84190000Y-65500000D01*
X74676000Y-68580000D02*
X74676000Y-66040000D01*
%TO.N,unconnected-(U1-MICP1-Pad14)*%
X80264000Y-96520000D02*
X80264000Y-77216000D01*
X80980000Y-76500000D02*
X84190000Y-76500000D01*
X80264000Y-96520000D02*
X71120000Y-96520000D01*
X80264000Y-77216000D02*
X80980000Y-76500000D01*
%TO.N,unconnected-(U1-MCLK1-Pad5)*%
X75692000Y-73660000D02*
X75692000Y-68072000D01*
X75692000Y-68072000D02*
X76264000Y-67500000D01*
X71120000Y-73660000D02*
X75692000Y-73660000D01*
X76264000Y-67500000D02*
X84190000Y-67500000D01*
%TO.N,unconnected-(U1-P0_7-Pad45)*%
X106092000Y-68500000D02*
X98690000Y-68500000D01*
X106680000Y-69088000D02*
X106092000Y-68500000D01*
X106680000Y-76200000D02*
X106680000Y-69088000D01*
X111760000Y-76200000D02*
X106680000Y-76200000D01*
%TO.N,unconnected-(U1-DMIC1_L-Pad19)*%
X82804000Y-82296000D02*
X83600000Y-81500000D01*
X82804000Y-109220000D02*
X82804000Y-82296000D01*
X83600000Y-81500000D02*
X84190000Y-81500000D01*
X82804000Y-109220000D02*
X71120000Y-109220000D01*
%TO.N,unconnected-(U1-P3_2-Pad20)*%
X83312000Y-111760000D02*
X71120000Y-111760000D01*
X83312000Y-83378000D02*
X84190000Y-82500000D01*
X83312000Y-111760000D02*
X83312000Y-83378000D01*
%TO.N,unconnected-(U1-DT1-Pad4)*%
X75740000Y-66500000D02*
X84190000Y-66500000D01*
X75184000Y-71120000D02*
X75184000Y-67056000D01*
X75184000Y-71120000D02*
X71120000Y-71120000D01*
X75184000Y-67056000D02*
X75740000Y-66500000D01*
%TO.N,unconnected-(U1-AIR-Pad11)*%
X71120000Y-88900000D02*
X78740000Y-88900000D01*
X78740000Y-74168000D02*
X79408000Y-73500000D01*
X79408000Y-73500000D02*
X84190000Y-73500000D01*
X78740000Y-88900000D02*
X78740000Y-74168000D01*
%TO.N,unconnected-(U1-LED2-Pad34)*%
X111760000Y-104140000D02*
X101092000Y-104140000D01*
X101092000Y-104140000D02*
X101092000Y-80264000D01*
X100328000Y-79500000D02*
X98690000Y-79500000D01*
X101092000Y-80264000D02*
X100328000Y-79500000D01*
%TO.N,unconnected-(U1-P0_0{slash}UART_TX_IND-Pad49)*%
X108188000Y-64500000D02*
X98690000Y-64500000D01*
X108712000Y-66040000D02*
X111760000Y-66040000D01*
X108712000Y-65024000D02*
X108188000Y-64500000D01*
X108712000Y-65024000D02*
X108712000Y-66040000D01*
%TO.N,unconnected-(U1-P2_3-Pad42)*%
X111760000Y-83820000D02*
X105156000Y-83820000D01*
X105156000Y-72136000D02*
X104520000Y-71500000D01*
X104520000Y-71500000D02*
X98690000Y-71500000D01*
X105156000Y-83820000D02*
X105156000Y-72136000D01*
%TO.N,unconnected-(U1-P3_4{slash}UART_RTS-Pad31)*%
X111760000Y-111760000D02*
X99568000Y-111760000D01*
X99502000Y-83312000D02*
X98690000Y-82500000D01*
X99568000Y-83312000D02*
X99502000Y-83312000D01*
X99568000Y-111760000D02*
X99568000Y-83312000D01*
%TO.N,unconnected-(U1-P2_7-Pad39)*%
X103632000Y-91440000D02*
X103632000Y-75184000D01*
X111760000Y-91440000D02*
X103632000Y-91440000D01*
X103632000Y-75184000D02*
X102948000Y-74500000D01*
X102948000Y-74500000D02*
X98690000Y-74500000D01*
%TO.N,unconnected-(U1-VDD_IO-Pad25)*%
X71120000Y-124460000D02*
X85852000Y-124460000D01*
X85852000Y-124460000D02*
X85852000Y-92964000D01*
X85852000Y-92964000D02*
X90940000Y-87876000D01*
X90940000Y-87876000D02*
X90940000Y-84150000D01*
%TO.N,unconnected-(U1-P1_3{slash}TCK_CPU{slash}SDA-Pad47)*%
X107140000Y-66500000D02*
X98690000Y-66500000D01*
X111760000Y-71120000D02*
X107696000Y-71120000D01*
X107696000Y-71120000D02*
X107696000Y-67056000D01*
X107696000Y-67056000D02*
X107140000Y-66500000D01*
%TO.N,unconnected-(U1-P0_1-Pad44)*%
X111760000Y-78740000D02*
X106172000Y-78740000D01*
X105568000Y-69500000D02*
X98690000Y-69500000D01*
X106172000Y-70104000D02*
X105568000Y-69500000D01*
X106172000Y-78740000D02*
X106172000Y-70104000D01*
%TO.N,unconnected-(U1-MICP2-Pad10)*%
X78232000Y-73152000D02*
X78884000Y-72500000D01*
X78884000Y-72500000D02*
X84190000Y-72500000D01*
X78232000Y-86360000D02*
X78232000Y-73152000D01*
X71120000Y-86360000D02*
X78232000Y-86360000D01*
%TO.N,unconnected-(U1-P8_6{slash}UART_RXD-Pad29)*%
X94940000Y-86304000D02*
X94940000Y-84150000D01*
X98552000Y-89916000D02*
X94940000Y-86304000D01*
X111760000Y-116840000D02*
X98552000Y-116840000D01*
X98552000Y-116840000D02*
X98552000Y-89916000D01*
%TO.N,unconnected-(U1-SK2_KEY_AD-Pad28)*%
X98044000Y-119380000D02*
X98044000Y-90932000D01*
X93940000Y-86828000D02*
X93940000Y-84150000D01*
X111760000Y-119380000D02*
X98044000Y-119380000D01*
X98044000Y-90932000D02*
X93940000Y-86828000D01*
%TO.N,unconnected-(U1-P0_3-Pad38)*%
X103124000Y-76200000D02*
X102424000Y-75500000D01*
X111760000Y-93980000D02*
X103124000Y-93980000D01*
X103124000Y-93980000D02*
X103124000Y-76200000D01*
X102424000Y-75500000D02*
X98690000Y-75500000D01*
%TO.N,unconnected-(U1-P8_5{slash}UART_TXD-Pad30)*%
X99060000Y-114300000D02*
X99060000Y-88900000D01*
X99060000Y-88900000D02*
X95940000Y-85780000D01*
X99060000Y-114300000D02*
X110744000Y-114300000D01*
X110744000Y-114300000D02*
X111760000Y-114300000D01*
X95940000Y-85780000D02*
X95940000Y-84150000D01*
%TO.N,unconnected-(U1-PWR(MFB)-Pad26)*%
X91940000Y-87876000D02*
X91940000Y-84150000D01*
X111760000Y-124460000D02*
X97028000Y-124460000D01*
X97028000Y-92964000D02*
X91940000Y-87876000D01*
X97028000Y-124460000D02*
X97028000Y-92964000D01*
%TO.N,unconnected-(U1-DR1-Pad1)*%
X73660000Y-63500000D02*
X84190000Y-63500000D01*
X73660000Y-63500000D02*
X71120000Y-63500000D01*
%TO.N,unconnected-(U1-MICN1-Pad13)*%
X79756000Y-93980000D02*
X71120000Y-93980000D01*
X80456000Y-75500000D02*
X84190000Y-75500000D01*
X79756000Y-93980000D02*
X79756000Y-76200000D01*
X79756000Y-76200000D02*
X80456000Y-75500000D01*
%TO.N,unconnected-(U1-SYS_PWR-Pad24)*%
X85344000Y-121920000D02*
X85344000Y-91948000D01*
X85344000Y-91948000D02*
X89940000Y-87352000D01*
X89940000Y-87352000D02*
X89940000Y-84150000D01*
X71120000Y-121920000D02*
X85344000Y-121920000D01*
%TO.N,unconnected-(U1-~{RST}-Pad43)*%
X111760000Y-81280000D02*
X105664000Y-81280000D01*
X105044000Y-70500000D02*
X98690000Y-70500000D01*
X105664000Y-71120000D02*
X105044000Y-70500000D01*
X105664000Y-81280000D02*
X105664000Y-71120000D01*
%TO.N,unconnected-(U1-LED1-Pad32)*%
X100076000Y-82296000D02*
X99280000Y-81500000D01*
X111760000Y-109220000D02*
X100076000Y-109220000D01*
X100076000Y-109220000D02*
X100076000Y-82296000D01*
X99280000Y-81500000D02*
X98690000Y-81500000D01*
%TO.N,unconnected-(U1-AOHPL-Pad8)*%
X77216000Y-71120000D02*
X77836000Y-70500000D01*
X71120000Y-81280000D02*
X77216000Y-81280000D01*
X77216000Y-81280000D02*
X77216000Y-71120000D01*
X77836000Y-70500000D02*
X84190000Y-70500000D01*
%TO.N,unconnected-(U1-RFS1-Pad2)*%
X74168000Y-65024000D02*
X74692000Y-64500000D01*
X74168000Y-66040000D02*
X74168000Y-65024000D01*
X74168000Y-66040000D02*
X71120000Y-66040000D01*
X74692000Y-64500000D02*
X84190000Y-64500000D01*
%TO.N,unconnected-(U1-P0_6-Pad35)*%
X111760000Y-101600000D02*
X101600000Y-101600000D01*
X100852000Y-78500000D02*
X98690000Y-78500000D01*
X101600000Y-79248000D02*
X100852000Y-78500000D01*
X101600000Y-101600000D02*
X101600000Y-79248000D01*
%TO.N,unconnected-(U1-AOHPR-Pad6)*%
X76200000Y-76200000D02*
X76200000Y-69088000D01*
X76788000Y-68500000D02*
X84190000Y-68500000D01*
X71120000Y-76200000D02*
X76200000Y-76200000D01*
X76200000Y-69088000D02*
X76788000Y-68500000D01*
%TO.N,unconnected-(U1-P1_2{slash}TDI_CPU{slash}SCL-Pad46)*%
X107188000Y-68072000D02*
X106616000Y-67500000D01*
X111760000Y-73660000D02*
X107188000Y-73660000D01*
X106616000Y-67500000D02*
X98690000Y-67500000D01*
X107188000Y-73660000D02*
X107188000Y-68072000D01*
%TO.N,unconnected-(U1-AOHPM-Pad7)*%
X77312000Y-69500000D02*
X84190000Y-69500000D01*
X71120000Y-78740000D02*
X76708000Y-78740000D01*
X76708000Y-70104000D02*
X77312000Y-69500000D01*
X76708000Y-78740000D02*
X76708000Y-70104000D01*
%TO.N,unconnected-(U1-BAT_IN-Pad23)*%
X84836000Y-90932000D02*
X88940000Y-86828000D01*
X88940000Y-86828000D02*
X88940000Y-84150000D01*
X71120000Y-119380000D02*
X84836000Y-119380000D01*
X84836000Y-119380000D02*
X84836000Y-90932000D01*
%TO.N,unconnected-(U1-AIL-Pad12)*%
X79248000Y-91440000D02*
X79248000Y-75184000D01*
X79932000Y-74500000D02*
X84190000Y-74500000D01*
X71120000Y-91440000D02*
X79248000Y-91440000D01*
X79248000Y-75184000D02*
X79932000Y-74500000D01*
%TO.N,unconnected-(U1-MICBIAS-Pad15)*%
X80772000Y-99060000D02*
X71120000Y-99060000D01*
X81504000Y-77500000D02*
X84190000Y-77500000D01*
X80772000Y-99060000D02*
X80772000Y-78232000D01*
X80772000Y-78232000D02*
X81504000Y-77500000D01*
%TO.N,unconnected-(U1-SK1_AMB_DET-Pad27)*%
X97536000Y-91948000D02*
X92940000Y-87352000D01*
X97536000Y-121920000D02*
X97536000Y-91948000D01*
X111760000Y-121920000D02*
X97536000Y-121920000D01*
X92940000Y-87352000D02*
X92940000Y-84150000D01*
%TO.N,unconnected-(U1-P3_7{slash}UART_CTS-Pad48)*%
X107664000Y-65500000D02*
X98690000Y-65500000D01*
X108204000Y-66040000D02*
X107664000Y-65500000D01*
X108204000Y-68580000D02*
X108204000Y-66040000D01*
X111760000Y-68580000D02*
X108204000Y-68580000D01*
%TO.N,unconnected-(U1-MICN2-Pad9)*%
X78360000Y-71500000D02*
X84190000Y-71500000D01*
X77724000Y-83820000D02*
X77724000Y-72136000D01*
X71120000Y-83820000D02*
X77724000Y-83820000D01*
X77724000Y-72136000D02*
X78360000Y-71500000D01*
%TO.N,unconnected-(U1-P0_5-Pad40)*%
X104140000Y-88900000D02*
X104140000Y-74168000D01*
X111760000Y-88900000D02*
X104140000Y-88900000D01*
X103472000Y-73500000D02*
X98690000Y-73500000D01*
X104140000Y-74168000D02*
X103472000Y-73500000D01*
%TO.N,unconnected-(U1-P0_2-Pad33)*%
X100584000Y-106680000D02*
X100584000Y-81280000D01*
X100584000Y-81280000D02*
X99804000Y-80500000D01*
X99804000Y-80500000D02*
X98690000Y-80500000D01*
X111760000Y-106680000D02*
X100584000Y-106680000D01*
%TO.N,Net-(U1-GND-Pad16)*%
X81280000Y-101600000D02*
X71120000Y-101600000D01*
X111760000Y-63500000D02*
X98690000Y-63500000D01*
X82028000Y-78500000D02*
X84190000Y-78500000D01*
X81280000Y-101600000D02*
X81280000Y-79248000D01*
X81280000Y-79248000D02*
X82028000Y-78500000D01*
%TD*%
M02*
