%TF.GenerationSoftware,KiCad,Pcbnew,8.0.1*%
%TF.CreationDate,2024-04-14T04:03:23+09:00*%
%TF.ProjectId,BM83_Breakout,424d3833-5f42-4726-9561-6b6f75742e6b,rev?*%
%TF.SameCoordinates,Original*%
%TF.FileFunction,Copper,L2,Bot*%
%TF.FilePolarity,Positive*%
%FSLAX46Y46*%
G04 Gerber Fmt 4.6, Leading zero omitted, Abs format (unit mm)*
G04 Created by KiCad (PCBNEW 8.0.1) date 2024-04-14 04:03:23*
%MOMM*%
%LPD*%
G01*
G04 APERTURE LIST*
%TA.AperFunction,ComponentPad*%
%ADD10R,1.700000X1.700000*%
%TD*%
%TA.AperFunction,ComponentPad*%
%ADD11O,1.700000X1.700000*%
%TD*%
G04 APERTURE END LIST*
D10*
%TO.P,REF\u002A\u002A,1*%
%TO.N,N/C*%
X71120000Y-63500000D03*
D11*
%TO.P,REF\u002A\u002A,2*%
X71120000Y-66040000D03*
%TO.P,REF\u002A\u002A,3*%
X71120000Y-68580000D03*
%TO.P,REF\u002A\u002A,4*%
X71120000Y-71120000D03*
%TO.P,REF\u002A\u002A,5*%
X71120000Y-73660000D03*
%TO.P,REF\u002A\u002A,6*%
X71120000Y-76200000D03*
%TO.P,REF\u002A\u002A,7*%
X71120000Y-78740000D03*
%TO.P,REF\u002A\u002A,8*%
X71120000Y-81280000D03*
%TO.P,REF\u002A\u002A,9*%
X71120000Y-83820000D03*
%TO.P,REF\u002A\u002A,10*%
X71120000Y-86360000D03*
%TO.P,REF\u002A\u002A,11*%
X71120000Y-88900000D03*
%TO.P,REF\u002A\u002A,12*%
X71120000Y-91440000D03*
%TO.P,REF\u002A\u002A,13*%
X71120000Y-93980000D03*
%TO.P,REF\u002A\u002A,14*%
X71120000Y-96520000D03*
%TO.P,REF\u002A\u002A,15*%
X71120000Y-99060000D03*
%TO.P,REF\u002A\u002A,16*%
X71120000Y-101600000D03*
%TO.P,REF\u002A\u002A,17*%
X71120000Y-104140000D03*
%TO.P,REF\u002A\u002A,18*%
X71120000Y-106680000D03*
%TO.P,REF\u002A\u002A,19*%
X71120000Y-109220000D03*
%TO.P,REF\u002A\u002A,20*%
X71120000Y-111760000D03*
%TO.P,REF\u002A\u002A,21*%
X71120000Y-114300000D03*
%TO.P,REF\u002A\u002A,22*%
X71120000Y-116840000D03*
%TO.P,REF\u002A\u002A,23*%
X71120000Y-119380000D03*
%TO.P,REF\u002A\u002A,24*%
X71120000Y-121920000D03*
%TO.P,REF\u002A\u002A,25*%
X71120000Y-124460000D03*
%TD*%
D10*
%TO.P,REF\u002A\u002A,1*%
%TO.N,N/C*%
X111760000Y-63500000D03*
D11*
%TO.P,REF\u002A\u002A,2*%
X111760000Y-66040000D03*
%TO.P,REF\u002A\u002A,3*%
X111760000Y-68580000D03*
%TO.P,REF\u002A\u002A,4*%
X111760000Y-71120000D03*
%TO.P,REF\u002A\u002A,5*%
X111760000Y-73660000D03*
%TO.P,REF\u002A\u002A,6*%
X111760000Y-76200000D03*
%TO.P,REF\u002A\u002A,7*%
X111760000Y-78740000D03*
%TO.P,REF\u002A\u002A,8*%
X111760000Y-81280000D03*
%TO.P,REF\u002A\u002A,9*%
X111760000Y-83820000D03*
%TO.P,REF\u002A\u002A,10*%
X111760000Y-86360000D03*
%TO.P,REF\u002A\u002A,11*%
X111760000Y-88900000D03*
%TO.P,REF\u002A\u002A,12*%
X111760000Y-91440000D03*
%TO.P,REF\u002A\u002A,13*%
X111760000Y-93980000D03*
%TO.P,REF\u002A\u002A,14*%
X111760000Y-96520000D03*
%TO.P,REF\u002A\u002A,15*%
X111760000Y-99060000D03*
%TO.P,REF\u002A\u002A,16*%
X111760000Y-101600000D03*
%TO.P,REF\u002A\u002A,17*%
X111760000Y-104140000D03*
%TO.P,REF\u002A\u002A,18*%
X111760000Y-106680000D03*
%TO.P,REF\u002A\u002A,19*%
X111760000Y-109220000D03*
%TO.P,REF\u002A\u002A,20*%
X111760000Y-111760000D03*
%TO.P,REF\u002A\u002A,21*%
X111760000Y-114300000D03*
%TO.P,REF\u002A\u002A,22*%
X111760000Y-116840000D03*
%TO.P,REF\u002A\u002A,23*%
X111760000Y-119380000D03*
%TO.P,REF\u002A\u002A,24*%
X111760000Y-121920000D03*
%TO.P,REF\u002A\u002A,25*%
X111760000Y-124460000D03*
%TD*%
M02*
