M48
; DRILL file {KiCad 8.0.1} date 2024-04-14T04:03:29+0900
; FORMAT={-:-/ absolute / inch / decimal}
; #@! TF.CreationDate,2024-04-14T04:03:29+09:00
; #@! TF.GenerationSoftware,Kicad,Pcbnew,8.0.1
; #@! TF.FileFunction,Plated,1,2,PTH
FMAT,2
INCH
; #@! TA.AperFunction,Plated,PTH,ComponentDrill
T1C0.0394
%
G90
G05
T1
X2.8Y-2.5
X2.8Y-2.6
X2.8Y-2.7
X2.8Y-2.8
X2.8Y-2.9
X2.8Y-3.0
X2.8Y-3.1
X2.8Y-3.2
X2.8Y-3.3
X2.8Y-3.4
X2.8Y-3.5
X2.8Y-3.6
X2.8Y-3.7
X2.8Y-3.8
X2.8Y-3.9
X2.8Y-4.0
X2.8Y-4.1
X2.8Y-4.2
X2.8Y-4.3
X2.8Y-4.4
X2.8Y-4.5
X2.8Y-4.6
X2.8Y-4.7
X2.8Y-4.8
X2.8Y-4.9
X4.4Y-2.5
X4.4Y-2.6
X4.4Y-2.7
X4.4Y-2.8
X4.4Y-2.9
X4.4Y-3.0
X4.4Y-3.1
X4.4Y-3.2
X4.4Y-3.3
X4.4Y-3.4
X4.4Y-3.5
X4.4Y-3.6
X4.4Y-3.7
X4.4Y-3.8
X4.4Y-3.9
X4.4Y-4.0
X4.4Y-4.1
X4.4Y-4.2
X4.4Y-4.3
X4.4Y-4.4
X4.4Y-4.5
X4.4Y-4.6
X4.4Y-4.7
X4.4Y-4.8
X4.4Y-4.9
M30
