%TF.GenerationSoftware,KiCad,Pcbnew,8.0.1*%
%TF.CreationDate,2024-04-14T04:03:28+09:00*%
%TF.ProjectId,BM83_Breakout,424d3833-5f42-4726-9561-6b6f75742e6b,rev?*%
%TF.SameCoordinates,Original*%
%TF.FileFunction,Drillmap*%
%TF.FilePolarity,Positive*%
%FSLAX45Y45*%
G04 Gerber Fmt 4.5, Leading zero omitted, Abs format (unit mm)*
G04 Created by KiCad (PCBNEW 8.0.1) date 2024-04-14 04:03:28*
%MOMM*%
%LPD*%
G01*
G04 APERTURE LIST*
%ADD10C,0.050000*%
%ADD11C,0.200000*%
G04 APERTURE END LIST*
D10*
X6858000Y-12598400D02*
X6858000Y-6197600D01*
X11328400Y-6096000D02*
G75*
G02*
X11430000Y-6197600I0J-101600D01*
G01*
X6959600Y-6096000D02*
X11328400Y-6096000D01*
X11430000Y-12598400D02*
G75*
G02*
X11328400Y-12700000I-101600J0D01*
G01*
X11328400Y-12700000D02*
X6959600Y-12700000D01*
X6959600Y-12700000D02*
G75*
G02*
X6858000Y-12598400I0J101600D01*
G01*
X11430000Y-6197600D02*
X11430000Y-12598400D01*
X6858000Y-6197600D02*
G75*
G02*
X6959600Y-6096000I101600J0D01*
G01*
D11*
X7116277Y-13013984D02*
X7116277Y-12813984D01*
X7116277Y-12813984D02*
X7163896Y-12813984D01*
X7163896Y-12813984D02*
X7192467Y-12823508D01*
X7192467Y-12823508D02*
X7211515Y-12842555D01*
X7211515Y-12842555D02*
X7221039Y-12861603D01*
X7221039Y-12861603D02*
X7230562Y-12899698D01*
X7230562Y-12899698D02*
X7230562Y-12928269D01*
X7230562Y-12928269D02*
X7221039Y-12966365D01*
X7221039Y-12966365D02*
X7211515Y-12985412D01*
X7211515Y-12985412D02*
X7192467Y-13004460D01*
X7192467Y-13004460D02*
X7163896Y-13013984D01*
X7163896Y-13013984D02*
X7116277Y-13013984D01*
X7316277Y-13013984D02*
X7316277Y-12880650D01*
X7316277Y-12918746D02*
X7325801Y-12899698D01*
X7325801Y-12899698D02*
X7335324Y-12890174D01*
X7335324Y-12890174D02*
X7354372Y-12880650D01*
X7354372Y-12880650D02*
X7373420Y-12880650D01*
X7440086Y-13013984D02*
X7440086Y-12880650D01*
X7440086Y-12813984D02*
X7430562Y-12823508D01*
X7430562Y-12823508D02*
X7440086Y-12833031D01*
X7440086Y-12833031D02*
X7449610Y-12823508D01*
X7449610Y-12823508D02*
X7440086Y-12813984D01*
X7440086Y-12813984D02*
X7440086Y-12833031D01*
X7563896Y-13013984D02*
X7544848Y-13004460D01*
X7544848Y-13004460D02*
X7535324Y-12985412D01*
X7535324Y-12985412D02*
X7535324Y-12813984D01*
X7668658Y-13013984D02*
X7649610Y-13004460D01*
X7649610Y-13004460D02*
X7640086Y-12985412D01*
X7640086Y-12985412D02*
X7640086Y-12813984D01*
X7897229Y-13013984D02*
X7897229Y-12813984D01*
X7897229Y-12813984D02*
X7963896Y-12956841D01*
X7963896Y-12956841D02*
X8030562Y-12813984D01*
X8030562Y-12813984D02*
X8030562Y-13013984D01*
X8211515Y-13013984D02*
X8211515Y-12909222D01*
X8211515Y-12909222D02*
X8201991Y-12890174D01*
X8201991Y-12890174D02*
X8182943Y-12880650D01*
X8182943Y-12880650D02*
X8144848Y-12880650D01*
X8144848Y-12880650D02*
X8125801Y-12890174D01*
X8211515Y-13004460D02*
X8192467Y-13013984D01*
X8192467Y-13013984D02*
X8144848Y-13013984D01*
X8144848Y-13013984D02*
X8125801Y-13004460D01*
X8125801Y-13004460D02*
X8116277Y-12985412D01*
X8116277Y-12985412D02*
X8116277Y-12966365D01*
X8116277Y-12966365D02*
X8125801Y-12947317D01*
X8125801Y-12947317D02*
X8144848Y-12937793D01*
X8144848Y-12937793D02*
X8192467Y-12937793D01*
X8192467Y-12937793D02*
X8211515Y-12928269D01*
X8306753Y-12880650D02*
X8306753Y-13080650D01*
X8306753Y-12890174D02*
X8325801Y-12880650D01*
X8325801Y-12880650D02*
X8363896Y-12880650D01*
X8363896Y-12880650D02*
X8382943Y-12890174D01*
X8382943Y-12890174D02*
X8392467Y-12899698D01*
X8392467Y-12899698D02*
X8401991Y-12918746D01*
X8401991Y-12918746D02*
X8401991Y-12975888D01*
X8401991Y-12975888D02*
X8392467Y-12994936D01*
X8392467Y-12994936D02*
X8382943Y-13004460D01*
X8382943Y-13004460D02*
X8363896Y-13013984D01*
X8363896Y-13013984D02*
X8325801Y-13013984D01*
X8325801Y-13013984D02*
X8306753Y-13004460D01*
X8487705Y-12994936D02*
X8497229Y-13004460D01*
X8497229Y-13004460D02*
X8487705Y-13013984D01*
X8487705Y-13013984D02*
X8478182Y-13004460D01*
X8478182Y-13004460D02*
X8487705Y-12994936D01*
X8487705Y-12994936D02*
X8487705Y-13013984D01*
X8487705Y-12890174D02*
X8497229Y-12899698D01*
X8497229Y-12899698D02*
X8487705Y-12909222D01*
X8487705Y-12909222D02*
X8478182Y-12899698D01*
X8478182Y-12899698D02*
X8487705Y-12890174D01*
X8487705Y-12890174D02*
X8487705Y-12909222D01*
M02*
